# xmcd
#
# Track frame offsets: 
#        150
#        15052
#        29737
#        41404
#        49395
#        63054
#        83134
#        92128
#        102657
#        129135
#        143157
#        154298
#
# Disc length: 2217 seconds
#
# Revision: 0
# Processed by: cddbd v1.5.2PL0 Copyright (c) Steve Scherf et al.
# Submitted via: ExactAudioCopy v0.99pb5
#
DISCID=9508a70c
DTITLE=John Mayall - Blues Breakers With Eric Clapton
DYEAR=1966
DGENRE=Rock
TTITLE0=All Your Love
TTITLE1=Hideaway
TTITLE2=Little Girl
TTITLE3=Another Man
TTITLE4=Double Crossing Time
TTITLE5=What'd I Say
TTITLE6=Key To Love
TTITLE7=Parchman Farm
TTITLE8=Have You Heard
TTITLE9=Ramblin' on My Mind
TTITLE10=Steppin'Out
TTITLE11=It Ain't Right
EXTD=
EXTT0=
EXTT1=
EXTT2=
EXTT3=
EXTT4=
EXTT5=
EXTT6=
EXTT7=
EXTT8=
EXTT9=
EXTT10=
EXTT11=
PLAYORDER=
